<svg xmlns="http://www.w3.org/2000/svg" xmlns:xlink="http://www.w3.org/1999/xlink" width="500" zoomAndPan="magnify" viewBox="0 0 375 374.999991" height="500" preserveAspectRatio="xMidYMid meet" version="1.0"><defs><g/><clipPath id="c52ffd9bce"><path d="M 168 123 L 206 123 L 206 270.410156 L 168 270.410156 Z M 168 123 " clip-rule="nonzero"/></clipPath></defs><g clip-path="url(#c52ffd9bce)"><path fill="#000000" d="M 185.738281 269.351562 C 186.726562 270.304688 188.300781 270.277344 189.253906 269.289062 L 204.789062 253.1875 C 205.742188 252.199219 205.714844 250.621094 204.726562 249.667969 C 203.742188 248.714844 202.167969 248.742188 201.214844 249.730469 L 187.40625 264.042969 L 173.113281 250.214844 C 172.125 249.257812 170.550781 249.285156 169.597656 250.273438 C 168.644531 251.261719 168.671875 252.839844 169.660156 253.792969 Z M 182.496094 123.296875 L 184.980469 267.605469 L 189.949219 267.519531 L 187.464844 123.210938 Z M 182.496094 123.296875 " fill-opacity="1" fill-rule="nonzero"/></g><g fill="#000000" fill-opacity="1"><g transform="translate(164.29101, 300.732196)"><g><path d="M 9.78125 -3.328125 C 9.78125 -2.191406 9.40625 -1.3125 8.65625 -0.6875 C 7.90625 -0.0625 6.8125 0.25 5.375 0.25 C 4.28125 0.25 3.363281 0.0546875 2.625 -0.328125 C 1.894531 -0.710938 1.300781 -1.3125 0.84375 -2.125 L 2.15625 -3 C 2.84375 -1.789062 3.90625 -1.1875 5.34375 -1.1875 C 6.207031 -1.1875 6.882812 -1.363281 7.375 -1.71875 C 7.875 -2.082031 8.125 -2.578125 8.125 -3.203125 C 8.125 -3.566406 8.039062 -3.867188 7.875 -4.109375 C 7.71875 -4.359375 7.507812 -4.566406 7.25 -4.734375 C 7 -4.898438 6.707031 -5.035156 6.375 -5.140625 C 6.039062 -5.242188 5.691406 -5.34375 5.328125 -5.4375 C 4.734375 -5.582031 4.175781 -5.734375 3.65625 -5.890625 C 3.144531 -6.046875 2.695312 -6.242188 2.3125 -6.484375 C 1.9375 -6.734375 1.640625 -7.046875 1.421875 -7.421875 C 1.203125 -7.804688 1.09375 -8.300781 1.09375 -8.90625 C 1.09375 -9.988281 1.441406 -10.84375 2.140625 -11.46875 C 2.835938 -12.101562 3.875 -12.421875 5.25 -12.421875 C 6.351562 -12.421875 7.234375 -12.21875 7.890625 -11.8125 C 8.546875 -11.40625 9.066406 -10.878906 9.453125 -10.234375 L 8.15625 -9.328125 C 7.84375 -9.847656 7.457031 -10.253906 7 -10.546875 C 6.539062 -10.835938 5.957031 -10.984375 5.25 -10.984375 C 4.457031 -10.984375 3.84375 -10.804688 3.40625 -10.453125 C 2.96875 -10.109375 2.75 -9.640625 2.75 -9.046875 C 2.75 -8.742188 2.8125 -8.484375 2.9375 -8.265625 C 3.070312 -8.054688 3.265625 -7.878906 3.515625 -7.734375 C 3.765625 -7.597656 4.070312 -7.476562 4.4375 -7.375 C 4.800781 -7.269531 5.21875 -7.160156 5.6875 -7.046875 C 6.238281 -6.898438 6.757812 -6.742188 7.25 -6.578125 C 7.75 -6.421875 8.1875 -6.207031 8.5625 -5.9375 C 8.9375 -5.675781 9.234375 -5.335938 9.453125 -4.921875 C 9.671875 -4.503906 9.78125 -3.972656 9.78125 -3.328125 Z M 9.78125 -3.328125 "/></g></g><g transform="translate(175.075189, 300.732196)"><g><path d="M 8.421875 -1.421875 C 8.128906 -0.929688 7.726562 -0.523438 7.21875 -0.203125 C 6.707031 0.109375 6.003906 0.265625 5.109375 0.265625 C 3.753906 0.265625 2.734375 -0.140625 2.046875 -0.953125 C 1.367188 -1.773438 1.03125 -2.988281 1.03125 -4.59375 C 1.03125 -6.195312 1.367188 -7.410156 2.046875 -8.234375 C 2.722656 -9.066406 3.722656 -9.484375 5.046875 -9.484375 C 6.566406 -9.484375 7.648438 -8.921875 8.296875 -7.796875 L 7.0625 -7.046875 C 6.832031 -7.398438 6.5625 -7.675781 6.25 -7.875 C 5.945312 -8.070312 5.539062 -8.171875 5.03125 -8.171875 C 4.144531 -8.171875 3.515625 -7.847656 3.140625 -7.203125 C 2.773438 -6.566406 2.59375 -5.679688 2.59375 -4.546875 C 2.59375 -3.691406 2.679688 -3.019531 2.859375 -2.53125 C 3.035156 -2.050781 3.304688 -1.679688 3.671875 -1.421875 C 4.046875 -1.171875 4.519531 -1.046875 5.09375 -1.046875 C 5.59375 -1.046875 5.992188 -1.132812 6.296875 -1.3125 C 6.609375 -1.5 6.90625 -1.789062 7.1875 -2.1875 Z M 8.421875 -1.421875 "/></g></g><g transform="translate(184.127922, 300.732196)"><g><path d="M 6.484375 -7.71875 C 6.316406 -7.789062 6.082031 -7.828125 5.78125 -7.828125 C 5.320312 -7.828125 4.882812 -7.722656 4.46875 -7.515625 C 4.050781 -7.304688 3.5625 -6.925781 3 -6.375 L 3 0 L 1.5 0 L 1.5 -9.21875 L 3 -9.21875 L 3 -7.71875 C 3.425781 -8.15625 3.867188 -8.535156 4.328125 -8.859375 C 4.796875 -9.191406 5.316406 -9.359375 5.890625 -9.359375 C 6.265625 -9.359375 6.566406 -9.296875 6.796875 -9.171875 Z M 6.484375 -7.71875 "/></g></g><g transform="translate(191.255852, 300.732196)"><g><path d="M 9.140625 -4.59375 C 9.140625 -2.988281 8.796875 -1.773438 8.109375 -0.953125 C 7.421875 -0.140625 6.414062 0.265625 5.09375 0.265625 C 3.78125 0.265625 2.773438 -0.132812 2.078125 -0.9375 C 1.378906 -1.75 1.03125 -2.96875 1.03125 -4.59375 C 1.03125 -6.238281 1.378906 -7.460938 2.078125 -8.265625 C 2.773438 -9.078125 3.78125 -9.484375 5.09375 -9.484375 C 6.414062 -9.484375 7.421875 -9.070312 8.109375 -8.25 C 8.796875 -7.425781 9.140625 -6.207031 9.140625 -4.59375 Z M 7.578125 -4.59375 C 7.578125 -5.84375 7.367188 -6.75 6.953125 -7.3125 C 6.546875 -7.882812 5.925781 -8.171875 5.09375 -8.171875 C 4.25 -8.171875 3.617188 -7.882812 3.203125 -7.3125 C 2.796875 -6.738281 2.59375 -5.832031 2.59375 -4.59375 C 2.59375 -3.382812 2.789062 -2.488281 3.1875 -1.90625 C 3.582031 -1.332031 4.21875 -1.046875 5.09375 -1.046875 C 5.9375 -1.046875 6.5625 -1.332031 6.96875 -1.90625 C 7.375 -2.476562 7.578125 -3.375 7.578125 -4.59375 Z M 7.578125 -4.59375 "/></g></g><g transform="translate(201.424796, 300.732196)"><g><path d="M 1.5625 0 L 1.5625 -13.09375 L 3.078125 -13.09375 L 3.078125 0 Z M 1.5625 0 "/></g></g><g transform="translate(206.065421, 300.732196)"><g><path d="M 1.5625 0 L 1.5625 -13.09375 L 3.078125 -13.09375 L 3.078125 0 Z M 1.5625 0 "/></g></g></g></svg>